<svg width="868" height="1146" viewBox="0 0 868 1146" fill="none" xmlns="http://www.w3.org/2000/svg">
<path d="M711.156 710.263L710.933 709.705C707.971 702.733 711.24 694.701 718.198 691.745C725.184 688.817 733.232 692.052 736.194 698.996L736.697 700.195C739.464 707.223 735.999 715.171 728.957 717.96C727.308 718.602 725.603 718.908 723.927 718.908C718.45 718.908 713.28 715.618 711.156 710.235V710.263Z" fill="#6AF9A7"/>
<path d="M693.105 619.514V618.956C693.105 611.398 699.253 605.263 706.826 605.263C714.399 605.263 720.547 611.398 720.547 618.956V619.932C720.547 627.49 714.399 633.43 706.826 633.43C699.253 633.43 693.105 627.1 693.105 619.542V619.514Z" fill="#6AF9A7"/>
<path d="M718.449 547.199C711.435 544.354 708.054 536.378 710.904 529.378L711.351 528.318C714.314 521.346 722.25 518.446 729.208 521.402C736.194 524.358 739.296 532.725 736.334 539.697C734.182 545.024 729.04 548.231 723.619 548.231C721.914 548.231 720.154 547.896 718.477 547.227L718.449 547.199Z" fill="#6AF9A7"/>
<path d="M689.163 794.765L688.549 793.929C684.105 787.793 685.726 779.594 691.874 775.16C698.022 770.725 706.824 772.454 711.295 778.59C715.766 784.697 714.453 793.259 708.333 797.721C705.902 799.506 703.052 800.371 700.229 800.371C696.01 800.371 691.846 798.446 689.163 794.765Z" fill="#6AF9A7"/>
<path d="M646.745 712.131L646.298 710.765C644.035 703.542 648.115 696.096 655.352 693.837C662.562 691.633 670.358 695.817 672.622 703.04C675.137 710.179 671.392 717.988 664.266 720.498C662.757 721.028 661.22 721.279 659.711 721.279C654.067 721.279 648.757 717.765 646.773 712.131H646.745Z" fill="#6AF9A7"/>
<path d="M632.968 624.199L632.52 622.833C630.257 615.61 634.337 608.163 641.574 605.904C648.784 603.701 656.581 607.884 658.844 615.107C661.359 622.247 657.614 630.056 650.489 632.566C648.98 633.096 647.443 633.347 645.934 633.347C640.289 633.347 634.98 629.833 632.996 624.199H632.968Z" fill="#6AF9A7"/>
<path d="M655.044 544.996C647.863 542.542 644.062 534.761 646.521 527.593L646.745 526.896C649.064 519.701 656.805 515.741 664.014 518.083C671.224 520.398 675.164 528.123 672.845 535.319L672.481 536.462C670.525 542.151 665.216 545.721 659.515 545.721C658.034 545.721 656.553 545.498 655.072 544.968L655.044 544.996Z" fill="#6AF9A7"/>
<path d="M691.735 463.924C685.615 459.462 684.302 450.872 688.773 444.793L689.304 444.068C693.747 437.932 702.326 436.566 708.474 441C714.621 445.434 715.991 453.996 711.548 460.131L710.933 460.968C708.25 464.621 704.086 466.574 699.867 466.574C697.044 466.574 694.194 465.709 691.763 463.924H691.735Z" fill="#6AF9A7"/>
<path d="M608.378 805.809L607.903 805C605.36 800.65 606.785 795.072 611.144 792.506C615.504 789.94 621.093 791.391 623.663 795.741L624.222 796.717C626.737 801.096 625.228 806.673 620.869 809.183C619.444 810.02 617.851 810.411 616.314 810.411C613.156 810.411 610.082 808.765 608.378 805.837V805.809Z" fill="#6AF9A7"/>
<path d="M571.043 716.371L570.763 715.311C569.478 710.43 572.384 705.438 577.275 704.155C582.137 702.873 587.167 705.773 588.452 710.653L588.704 711.602C590.017 716.454 587.139 721.474 582.249 722.785C581.466 723.008 580.656 723.092 579.845 723.092C575.821 723.092 572.133 720.414 571.015 716.343L571.043 716.371Z" fill="#6AF9A7"/>
<path d="M558.244 620.295V619.263C558.244 614.215 562.324 610.255 567.382 610.255C572.44 610.255 576.52 614.466 576.52 619.514V620.295C576.52 625.343 572.44 629.414 567.382 629.414C562.324 629.414 558.244 625.343 558.244 620.295Z" fill="#6AF9A7"/>
<path d="M577.079 535.374C572.217 534.064 569.31 529.044 570.624 524.191L570.875 523.243C572.161 518.363 577.163 515.462 582.053 516.745C586.943 518.028 589.849 523.02 588.564 527.9L588.285 528.96C587.167 533.032 583.478 535.709 579.454 535.709C578.672 535.709 577.861 535.598 577.051 535.402L577.079 535.374Z" fill="#6AF9A7"/>
<path d="M611.06 447.107C606.644 444.653 605.08 439.075 607.539 434.669L608.153 433.609C610.696 429.259 616.313 427.808 620.673 430.374C625.032 432.94 626.485 438.518 623.914 442.868L623.495 443.593C621.818 446.577 618.716 448.251 615.503 448.251C613.994 448.251 612.457 447.888 611.06 447.079V447.107Z" fill="#6AF9A7"/>
<path d="M538.656 880.941L537.93 879.825C535.191 875.586 536.589 870.204 540.836 867.47C545.056 864.765 550.896 866.215 553.663 870.455C556.569 874.582 555.563 880.271 551.399 883.172C549.806 884.287 547.99 884.817 546.173 884.817C543.295 884.817 540.445 883.451 538.684 880.913L538.656 880.941Z" fill="#6AF9A7"/>
<path d="M494.922 799.45L494.587 798.614C492.659 793.956 494.894 788.602 499.561 786.705C504.228 784.809 509.565 787.012 511.493 791.669L511.913 792.673C513.785 797.359 511.493 802.657 506.827 804.526C505.709 804.972 504.563 805.167 503.445 805.167C499.813 805.167 496.375 802.992 494.95 799.422L494.922 799.45Z" fill="#6AF9A7"/>
<path d="M468.179 711.323L467.984 710.347C467.006 705.41 470.247 700.614 475.221 699.638C480.195 698.634 484.974 701.897 485.952 706.861L486.148 707.837C487.126 712.773 483.884 717.57 478.91 718.546C478.323 718.658 477.736 718.713 477.149 718.713C472.874 718.713 469.018 715.701 468.179 711.323Z" fill="#6AF9A7"/>
<path d="M459.21 619.514V618.677C459.21 613.63 463.29 609.558 468.348 609.558C473.406 609.558 477.486 613.63 477.486 618.677V619.653C477.486 624.701 473.406 628.717 468.348 628.717C463.29 628.717 459.21 624.562 459.21 619.514Z" fill="#6AF9A7"/>
<path d="M475.11 538.637C470.192 537.55 467.062 532.669 468.152 527.733L468.292 527.008C469.27 522.044 474.104 518.809 479.022 519.785C483.996 520.761 487.21 525.53 486.26 530.494L486.008 531.693C485.058 535.932 481.286 538.833 477.094 538.833C476.424 538.833 475.781 538.749 475.11 538.609V538.637Z" fill="#6AF9A7"/>
<path d="M499.84 451.709C495.174 449.785 492.938 444.458 494.866 439.801L495.23 438.88C497.158 434.223 502.495 432.02 507.162 433.916C511.829 435.84 514.064 441.167 512.136 445.825L511.773 446.745C510.32 450.259 506.91 452.406 503.306 452.406C502.132 452.406 500.958 452.183 499.812 451.709H499.84Z" fill="#6AF9A7"/>
<path d="M540.723 371.083C536.588 368.183 535.582 362.494 538.46 358.366L538.823 357.836C541.562 353.597 547.207 352.37 551.454 355.131C555.702 357.864 556.931 363.498 554.165 367.737L553.438 368.852C551.65 371.39 548.827 372.757 545.949 372.757C544.133 372.757 542.316 372.227 540.723 371.111V371.083Z" fill="#6AF9A7"/>
<path d="M293.891 1019.27C293.891 1019.27 293.556 1018.88 293.5 1018.79C292.019 1016.84 292.466 1014.16 294.366 1012.63C296.294 1011.07 299.172 1011.43 300.765 1013.27C302.442 1015.17 302.246 1018.04 300.346 1019.71C299.48 1020.47 298.418 1020.86 297.328 1020.86C296.071 1020.86 294.785 1020.33 293.891 1019.3V1019.27Z" fill="#6AF9A7"/>
<path d="M220.397 867.498C220.397 867.498 220.201 866.968 220.173 866.857C219.474 864.514 220.788 862.172 223.079 861.363C225.399 860.554 227.97 861.837 228.864 864.096C229.814 866.439 228.668 869.088 226.321 870.036C225.762 870.259 225.175 870.371 224.616 870.371C222.8 870.371 221.095 869.283 220.369 867.498H220.397Z" fill="#6AF9A7"/>
<path d="M252.506 945.056C252.506 945.056 252.31 944.526 252.282 944.415C251.583 942.072 252.897 939.729 255.188 938.921C257.508 938.112 260.078 939.395 260.973 941.654C261.923 943.996 260.777 946.646 258.43 947.594C257.871 947.817 257.284 947.929 256.725 947.929C254.909 947.929 253.204 946.841 252.478 945.056H252.506Z" fill="#6AF9A7"/>
<path d="M197.119 786.678C197.119 786.678 196.979 786.148 196.951 785.98C196.476 783.582 197.985 781.379 200.36 780.793C202.708 780.179 205.167 781.713 205.866 784.056C206.592 786.482 205.223 789.02 202.792 789.745C202.345 789.885 201.925 789.94 201.478 789.94C199.522 789.94 197.678 788.658 197.091 786.678H197.119Z" fill="#6AF9A7"/>
<path d="M178.369 619.402V619.123C178.369 616.614 180.409 614.689 182.951 614.689C185.466 614.689 187.534 616.865 187.534 619.375C187.534 621.885 185.494 623.948 182.951 623.948C180.436 623.948 178.369 621.912 178.369 619.375V619.402Z" fill="#6AF9A7"/>
<path d="M183.007 702.9V702.622C183.007 700.112 185.047 698.187 187.59 698.187C190.133 698.187 192.173 700.363 192.173 702.873C192.173 705.383 190.133 707.446 187.59 707.446C185.075 707.446 183.007 705.41 183.007 702.873V702.9Z" fill="#6AF9A7"/>
<path d="M187.172 540.45C184.657 540.227 182.785 537.996 183.036 535.486C183.036 535.486 183.036 535.179 183.064 535.151C183.316 532.641 185.468 530.884 188.038 531.191C190.553 531.442 192.37 533.785 192.146 536.267C191.923 538.637 189.939 540.422 187.591 540.422C187.452 540.422 187.312 540.422 187.172 540.422V540.45Z" fill="#6AF9A7"/>
<path d="M255.104 300.051C252.756 299.103 251.611 296.454 252.561 294.111C252.645 293.944 252.84 293.498 252.924 293.33C254.154 291.127 257.004 290.207 259.212 291.434C261.419 292.661 262.285 295.31 261.056 297.514C260.329 299.298 258.625 300.386 256.808 300.386C256.249 300.386 255.663 300.275 255.104 300.051Z" fill="#6AF9A7"/>
<path d="M222.884 377.442C220.536 376.494 219.391 373.844 220.341 371.502C220.425 371.334 220.62 370.888 220.704 370.721C221.934 368.518 224.784 367.597 226.992 368.824C229.199 370.051 230.066 372.701 228.836 374.904C228.109 376.689 226.405 377.777 224.588 377.777C224.03 377.777 223.443 377.665 222.884 377.442Z" fill="#6AF9A7"/>
<path d="M199.886 457.594C197.539 456.645 196.393 453.996 197.343 451.653C197.427 451.486 197.623 451.04 197.706 450.872C198.936 448.669 201.786 447.749 203.994 448.976C206.202 450.203 207.068 452.852 205.838 455.056C205.112 456.841 203.407 457.928 201.591 457.928C201.032 457.928 200.445 457.817 199.886 457.594Z" fill="#6AF9A7"/>
<path d="M294.953 226.537C292.802 225.199 292.159 222.382 293.5 220.263C293.5 220.207 293.696 219.956 293.724 219.928C295.093 217.864 297.832 217.362 299.928 218.729C302.023 220.095 302.582 222.968 301.241 225.087C300.375 226.482 298.894 227.235 297.357 227.235C296.518 227.235 295.68 227.012 294.925 226.537H294.953Z" fill="#6AF9A7"/>
<path d="M124.52 1083.83C124.52 1083.83 124.24 1083.38 124.185 1083.27C122.983 1081.12 123.793 1078.56 125.861 1077.28C127.957 1076.02 130.752 1076.72 132.121 1078.75C133.518 1080.85 132.959 1083.69 130.863 1085.08C130.081 1085.61 129.215 1085.84 128.32 1085.84C126.839 1085.84 125.386 1085.11 124.52 1083.8V1083.83Z" fill="#6AF9A7"/>
<path d="M70.5035 974.757C70.5035 974.757 70.3638 974.395 70.3359 974.339C69.4137 972.024 70.5594 969.542 72.8508 968.566C75.1702 967.59 77.8529 968.789 78.8589 971.048C79.8928 973.335 78.8589 976.04 76.5395 977.072C75.9247 977.351 75.31 977.463 74.6952 977.463C72.9347 977.463 71.286 976.459 70.5035 974.757Z" fill="#6AF9A7"/>
<path d="M7.8525 740.662C7.8525 740.662 7.76867 740.132 7.76867 740.02C7.51717 737.594 9.27766 735.53 11.7088 735.195C14.0841 734.777 16.4314 736.618 16.8506 739.016C17.2977 741.498 15.649 743.869 13.1619 744.315C12.8825 744.371 12.603 744.399 12.3236 744.399C10.1719 744.399 8.24372 742.865 7.82456 740.662H7.8525Z" fill="#6AF9A7"/>
<path d="M31.2979 859.104C31.2979 859.104 31.214 858.574 31.214 858.462C30.9625 856.036 32.723 853.972 35.1542 853.638C37.5295 853.219 39.8768 855.06 40.296 857.458C40.7431 859.941 39.0944 862.311 36.6073 862.757C36.3279 862.813 36.0484 862.841 35.769 862.841C33.6173 862.841 31.6891 861.307 31.2699 859.104H31.2979Z" fill="#6AF9A7"/>
<path d="M0 619.263V618.984C0 616.474 2.03994 614.55 4.58288 614.55C7.09787 614.55 9.16575 616.725 9.16575 619.263C9.16575 621.773 7.12581 623.837 4.58288 623.837C2.06788 623.837 0 621.801 0 619.263Z" fill="#6AF9A7"/>
<path d="M35.0431 384.637C32.556 384.135 30.9632 381.737 31.4662 379.283C31.4662 379.143 31.6059 378.725 31.6339 378.585C32.3325 376.243 34.7357 374.988 37.083 375.601C39.4583 376.187 40.9114 378.669 40.4363 381.067C39.9892 383.243 38.089 384.749 35.9652 384.749C35.6579 384.749 35.3505 384.749 35.071 384.665L35.0431 384.637Z" fill="#6AF9A7"/>
<path d="M73.9972 270.183C71.5101 269.681 69.9173 267.282 70.4203 264.828C70.4203 264.689 70.56 264.27 70.588 264.131C71.2866 261.788 73.6898 260.533 76.0371 261.147C78.4124 261.733 79.8655 264.215 79.3904 266.613C78.9433 268.788 77.0431 270.294 74.9193 270.294C74.612 270.294 74.3046 270.294 74.0251 270.211L73.9972 270.183Z" fill="#6AF9A7"/>
<path d="M127.65 161.892C125.163 161.39 123.57 158.991 124.073 156.537C124.073 156.398 124.213 155.98 124.241 155.84C124.939 153.497 127.343 152.242 129.69 152.856C132.065 153.442 133.518 155.924 133.043 158.322C132.596 160.498 130.696 162.003 128.572 162.003C128.265 162.003 127.957 162.003 127.678 161.92L127.65 161.892Z" fill="#6AF9A7"/>
<path d="M11.4847 503.08C8.99769 502.578 7.40486 500.179 7.90786 497.725C7.90786 497.585 8.04758 497.167 8.07552 497.028C8.77413 494.685 11.1773 493.43 13.5247 494.044C15.8999 494.629 17.3531 497.111 16.878 499.51C16.4309 501.685 14.5307 503.191 12.4069 503.191C12.0995 503.191 11.7921 503.191 11.5127 503.107L11.4847 503.08Z" fill="#6AF9A7"/>
<path d="M411.117 918.701C411.117 918.701 410.838 918.255 410.782 918.144C409.58 915.996 410.391 913.431 412.458 912.148C414.554 910.893 417.349 911.59 418.718 913.626C420.115 915.717 419.556 918.562 417.46 919.957C416.678 920.486 415.812 920.709 414.918 920.709C413.436 920.709 411.983 919.984 411.117 918.674V918.701Z" fill="#6AF9A7"/>
<path d="M367.273 824.801C367.273 824.801 366.993 824.355 366.937 824.243C365.736 822.096 366.546 819.53 368.614 818.247C370.71 816.992 373.504 817.69 374.874 819.725C376.271 821.817 375.712 824.662 373.616 826.056C372.834 826.586 371.967 826.809 371.073 826.809C369.592 826.809 368.139 826.084 367.273 824.773V824.801Z" fill="#6AF9A7"/>
<path d="M330.862 619.375V619.096C330.862 616.586 332.902 614.661 335.444 614.661C337.959 614.661 340.027 616.837 340.027 619.375C340.027 621.885 337.987 623.948 335.444 623.948C332.929 623.948 330.862 621.912 330.862 619.375Z" fill="#6AF9A7"/>
<path d="M339.719 722.673V722.394C339.719 719.885 341.759 717.96 344.302 717.96C346.817 717.96 348.885 720.136 348.885 722.673C348.885 725.183 346.845 727.247 344.302 727.247C341.787 727.247 339.719 725.211 339.719 722.673Z" fill="#6AF9A7"/>
<path d="M343.995 520.817C341.48 520.593 339.608 518.362 339.859 515.852C339.859 515.685 339.943 515.239 339.971 515.099C340.474 512.617 342.877 510.916 345.364 511.418C347.851 511.92 349.444 514.207 348.969 516.689C348.745 519.06 346.761 520.844 344.414 520.844C344.274 520.844 344.135 520.844 343.995 520.844V520.817Z" fill="#6AF9A7"/>
<path d="M369.872 420.697C367.44 419.972 366.071 417.434 366.798 415.008C366.826 414.868 366.965 414.478 367.021 414.366C367.943 412.107 370.431 411.048 372.722 411.884C375.041 412.693 376.243 415.287 375.544 417.629C374.958 419.609 373.141 420.892 371.157 420.892C370.71 420.892 370.291 420.836 369.844 420.697H369.872Z" fill="#6AF9A7"/>
<path d="M413.829 326.908C411.398 326.183 410.029 323.645 410.755 321.219C410.783 321.079 410.923 320.689 410.979 320.577C411.901 318.318 414.388 317.259 416.679 318.095C418.999 318.904 420.2 321.498 419.502 323.84C418.915 325.82 417.099 327.103 415.115 327.103C414.667 327.103 414.248 327.047 413.801 326.908H413.829Z" fill="#6AF9A7"/>
<path d="M762.044 471.621C756.791 466.155 756.958 457.51 762.407 452.267L762.91 451.793C768.276 446.438 776.939 446.438 782.304 451.793C787.669 457.147 787.669 465.793 782.304 471.147L781.438 472.012C778.783 474.577 775.346 475.833 771.936 475.833C768.332 475.833 764.727 474.438 762.044 471.621Z" fill="#96FA3C"/>
<path d="M831.541 418.578C828.774 411.55 832.239 403.601 839.281 400.813L839.84 400.589C846.826 397.633 854.874 400.896 857.836 407.84C860.798 414.813 857.529 422.844 850.571 425.801L849.369 426.303C847.72 426.944 846.016 427.251 844.339 427.251C838.862 427.251 833.692 423.96 831.568 418.578H831.541Z" fill="#96FA3C"/>
<path d="M751.62 398.052C747.149 391.944 748.462 383.382 754.582 378.92L755.42 378.307C761.596 373.844 769.784 375.518 774.227 381.625C778.67 387.761 776.937 396.573 770.79 401.008C768.359 402.793 765.508 403.657 762.686 403.657C758.466 403.657 754.303 401.733 751.62 398.052Z" fill="#96FA3C"/>
<path d="M828.971 353.988C826.456 346.848 830.2 339.039 837.326 336.53L838.695 336.083C845.961 333.824 853.394 337.896 855.658 345.119C857.921 352.342 853.674 360.095 846.436 362.354C844.927 362.884 843.39 363.135 841.881 363.135C836.236 363.135 830.927 359.621 828.943 353.988H828.971Z" fill="#96FA3C"/>
<path d="M666.584 370.47C663.008 366.9 663.008 361.127 666.584 357.557L667.311 356.832C670.888 353.263 676.672 353.263 680.249 356.832C683.826 360.402 683.826 366.175 680.249 369.745L679.523 370.47C677.734 372.255 675.387 373.147 673.068 373.147C670.748 373.147 668.401 372.255 666.612 370.47H666.584Z" fill="#96FA3C"/>
<path d="M740.079 310.789C737.564 306.41 739.073 300.832 743.432 298.322L744.243 297.848C748.602 295.283 754.219 296.733 756.762 301.083C759.305 305.434 757.88 311.012 753.52 313.577L752.542 314.135C751.117 314.972 749.524 315.362 747.987 315.362C744.83 315.362 741.756 313.717 740.051 310.789H740.079Z" fill="#96FA3C"/>
<path d="M826.568 272.163C825.254 267.31 828.132 262.291 833.023 260.98L834.085 260.701C838.947 259.446 843.949 262.318 845.262 267.199C846.548 272.079 843.642 277.071 838.751 278.354L837.801 278.605C837.019 278.828 836.208 278.912 835.398 278.912C831.374 278.912 827.685 276.235 826.568 272.163Z" fill="#96FA3C"/>
<path d="M596.92 300.219C593.343 296.649 593.343 290.876 596.92 287.306L597.618 286.609C601.195 283.039 606.98 283.039 610.557 286.609C614.134 290.179 614.134 295.952 610.557 299.522L609.858 300.219C608.07 302.004 605.722 302.896 603.403 302.896C601.083 302.896 598.736 302.004 596.948 300.219H596.92Z" fill="#96FA3C"/>
<path d="M665.775 241.318C662.98 237.135 664.182 231.39 668.401 228.601C668.457 228.601 669.1 228.127 669.156 228.099C673.375 225.366 678.573 226.844 681.34 231.027C684.106 235.211 682.541 241.123 678.349 243.884C676.813 244.916 675.08 245.39 673.375 245.39C670.441 245.39 667.563 243.94 665.775 241.29V241.318Z" fill="#96FA3C"/>
<path d="M744.605 197.059C742.677 192.402 744.912 187.047 749.579 185.151L750.501 184.789C755.168 182.892 760.505 185.095 762.433 189.753C764.362 194.41 762.126 199.765 757.459 201.661L756.537 202.024C755.391 202.498 754.218 202.721 753.044 202.721C749.467 202.721 746.03 200.601 744.577 197.059H744.605Z" fill="#96FA3C"/>
<path d="M830.73 169.003C829.752 164.067 832.994 159.27 837.968 158.294L838.946 158.099C843.92 157.123 848.698 160.358 849.677 165.322C850.655 170.258 847.413 175.055 842.439 176.031L841.461 176.227C840.874 176.338 840.287 176.394 839.7 176.394C835.425 176.394 831.569 173.382 830.73 169.003Z" fill="#96FA3C"/>
<path d="M398.514 95.4059C396.726 93.621 396.726 90.7485 398.514 88.9636L398.71 88.7684C400.47 86.9836 403.265 87.0951 405.081 88.88C406.87 90.6648 406.758 93.6489 404.969 95.4338C404.075 96.3262 402.901 96.7724 401.728 96.7724C400.554 96.7724 399.38 96.3262 398.486 95.4338L398.514 95.4059Z" fill="#96FA3C"/>
<path d="M342.766 157.709C340.977 155.924 340.977 153.051 342.766 151.266L342.961 151.071C344.722 149.286 347.516 149.398 349.333 151.183C351.121 152.968 351.009 155.952 349.221 157.737C348.327 158.629 347.153 159.075 345.979 159.075C344.806 159.075 343.632 158.629 342.738 157.737L342.766 157.709Z" fill="#96FA3C"/>
<path d="M460.776 39.4057C459.099 37.5093 459.295 34.6368 461.195 32.9635C461.279 32.8798 461.586 32.6288 461.67 32.5731C463.626 31.1229 466.309 31.5412 467.846 33.4376C469.383 35.334 469.047 38.2065 467.203 39.8241C466.337 40.5771 465.275 40.9675 464.185 40.9675C462.927 40.9675 461.642 40.4376 460.748 39.4057H460.776Z" fill="#96FA3C"/>
<path d="M194.884 61.5771C192.397 61.0751 190.804 58.6767 191.307 56.2225C191.307 56.0831 191.447 55.6647 191.475 55.5253C192.174 53.1827 194.577 51.9277 196.924 52.5412C199.299 53.1269 200.753 55.609 200.277 58.0074C199.83 60.1827 197.93 61.6886 195.806 61.6886C195.499 61.6886 195.192 61.6886 194.912 61.605L194.884 61.5771Z" fill="#96FA3C"/>
<path d="M471.868 241.542C469.856 240.036 469.437 237.163 470.946 235.155C471.03 235.071 471.282 234.765 471.337 234.681C472.958 232.84 475.669 232.701 477.569 234.235C479.469 235.796 479.749 238.669 478.268 240.621C477.373 241.82 476.004 242.462 474.607 242.462C473.657 242.462 472.679 242.155 471.868 241.542Z" fill="#96FA3C"/>
<path d="M545.279 168.334C543.267 166.828 542.847 163.956 544.356 161.948C544.44 161.864 544.692 161.557 544.748 161.474C546.368 159.633 549.079 159.494 550.979 161.027C552.879 162.589 553.159 165.462 551.678 167.414C550.784 168.613 549.414 169.255 548.017 169.255C547.067 169.255 546.089 168.948 545.279 168.334Z" fill="#96FA3C"/>
<path d="M628.999 107.816C627.602 105.725 628.161 102.88 630.257 101.486C630.369 101.402 630.704 101.207 630.816 101.151C632.995 99.9795 635.538 100.76 636.824 102.824C638.109 104.916 637.383 107.705 635.343 109.071C634.56 109.601 633.694 109.824 632.8 109.824C631.319 109.824 629.866 109.099 628.999 107.788V107.816Z" fill="#96FA3C"/>
<path d="M723.032 64.0033C721.635 61.9117 722.194 59.067 724.29 57.6726C724.402 57.589 724.737 57.3938 724.849 57.338C727.029 56.1667 729.571 56.9476 730.857 59.0113C732.142 61.1029 731.416 63.8918 729.376 65.2583C728.593 65.7882 727.727 66.0113 726.833 66.0113C725.352 66.0113 723.899 65.2862 723.032 63.9754V64.0033Z" fill="#96FA3C"/>
<path d="M823.045 37.2863C821.648 35.1947 822.207 32.35 824.303 30.9556C824.414 30.8719 824.75 30.6767 824.861 30.6209C827.041 29.4496 829.584 30.2305 830.869 32.2942C832.155 34.3859 831.428 37.1747 829.388 38.5413C828.606 39.0712 827.74 39.2943 826.846 39.2943C825.365 39.2943 823.911 38.5692 823.045 37.2584V37.2863Z" fill="#96FA3C"/>
<path d="M839.84 838.466L838.778 838.02C831.792 835.064 828.886 827.172 831.848 820.199C834.81 813.227 843.249 810.132 850.179 813.088C857.193 815.933 860.575 823.909 857.724 830.909C855.573 836.235 850.431 839.443 845.01 839.443C843.305 839.443 841.545 839.108 839.868 838.439L839.84 838.466Z" fill="#6BC7F8"/>
<path d="M762.603 786.984L762.128 786.482C756.763 781.128 756.763 772.482 762.128 767.128C767.494 761.773 776.157 761.773 781.522 767.128L782.388 767.992C787.642 773.458 787.474 782.104 782.025 787.347C779.37 789.913 775.933 791.168 772.524 791.168C768.919 791.168 765.314 789.773 762.631 786.957L762.603 786.984Z" fill="#6BC7F8"/>
<path d="M837.549 902.582C837.549 902.582 837.353 902.526 837.353 902.498C830.143 900.184 826.287 892.487 828.607 885.319C830.926 878.124 838.75 874.192 845.96 876.506C846.072 876.562 846.938 876.841 847.078 876.869C854.148 879.351 857.529 886.937 855.154 894.02C853.226 899.71 847.693 903.224 841.908 903.224C840.483 903.224 839.002 903 837.605 902.554L837.549 902.582Z" fill="#6BC7F8"/>
<path d="M755.086 860.498L754.36 859.968C748.212 855.534 746.843 846.972 751.286 840.837C755.729 834.701 764.308 833.335 770.456 837.769L771.294 838.383C777.414 842.845 778.727 851.435 774.256 857.514C771.574 861.168 767.41 863.12 763.19 863.12C760.368 863.12 757.518 862.255 755.086 860.47V860.498Z" fill="#6BC7F8"/>
<path d="M834.532 978.467L833.582 978.216C828.692 976.933 825.786 971.941 827.071 967.06C828.357 962.208 833.331 959.279 838.249 960.562L839.311 960.841C844.173 962.152 847.079 967.172 845.766 972.024C844.648 976.096 840.96 978.773 836.936 978.773C836.153 978.773 835.343 978.662 834.532 978.467Z" fill="#6BC7F8"/>
<path d="M744.801 941.487L743.823 940.929C739.464 938.363 738.011 932.785 740.582 928.435C743.153 924.084 748.741 922.634 753.101 925.2L753.911 925.674C758.298 928.184 759.807 933.761 757.264 938.14C755.588 941.068 752.486 942.714 749.328 942.714C747.791 942.714 746.198 942.323 744.773 941.487H744.801Z" fill="#6BC7F8"/>
<path d="M667.675 882.558L666.948 881.833C663.371 878.263 663.371 872.49 666.948 868.921C670.525 865.351 676.309 865.351 679.886 868.921L680.613 869.646C684.19 873.216 684.19 878.989 680.613 882.558C678.824 884.343 676.477 885.236 674.158 885.236C671.81 885.236 669.491 884.343 667.703 882.558H667.675Z" fill="#6BC7F8"/>
<path d="M837.97 1080.71L837.243 1080.57C832.269 1079.59 829.055 1074.82 830.005 1069.86C830.983 1064.89 835.79 1061.69 840.736 1062.63L841.938 1062.89C846.856 1063.97 849.986 1068.85 848.896 1073.79C847.946 1078.03 844.173 1080.93 839.982 1080.93C839.311 1080.93 838.668 1080.85 837.998 1080.71H837.97Z" fill="#6BC7F8"/>
<path d="M749.777 1053.96L748.966 1053.63C744.3 1051.7 742.064 1046.38 743.992 1041.72C745.92 1037.06 751.23 1034.89 755.924 1036.75L756.902 1037.17C761.569 1039.15 763.721 1044.51 761.765 1049.14C760.284 1052.62 756.902 1054.69 753.354 1054.69C752.152 1054.69 750.95 1054.46 749.777 1053.96Z" fill="#6BC7F8"/>
<path d="M668.039 1010.2C668.039 1010.2 667.536 1009.87 667.508 1009.84C663.373 1006.94 662.367 1001.25 665.245 997.124C668.151 992.996 673.852 991.993 677.987 994.865L678.798 995.423C682.906 998.295 683.716 1003.79 680.894 1007.92C679.133 1010.45 676.255 1011.79 673.349 1011.79C671.504 1011.79 669.66 1011.26 668.039 1010.2Z" fill="#6BC7F8"/>
<path d="M597.172 951.973L596.473 951.275C592.897 947.706 592.897 941.933 596.473 938.363C600.05 934.793 605.835 934.793 609.412 938.363L610.11 939.06C613.687 942.63 613.687 948.403 610.11 951.973C608.322 953.758 605.975 954.65 603.655 954.65C601.336 954.65 598.988 953.758 597.2 951.973H597.172Z" fill="#6BC7F8"/>
<path d="M398.488 1150.06L398.292 1149.87C396.504 1148.08 396.616 1145.3 398.404 1143.51C400.193 1141.73 403.183 1141.84 404.971 1143.62C406.759 1145.41 406.759 1148.28 404.971 1150.06C404.077 1150.96 402.903 1151.4 401.729 1151.4C400.556 1151.4 399.382 1150.96 398.488 1150.06Z" fill="#6BC7F8"/>
<path d="M342.431 1087.48C342.431 1087.48 342.095 1087.09 342.039 1087.01C340.558 1085.06 341.005 1082.38 342.906 1080.85C344.834 1079.28 347.712 1079.65 349.305 1081.49C350.982 1083.38 350.786 1086.26 348.886 1087.93C348.019 1088.68 346.958 1089.07 345.868 1089.07C344.61 1089.07 343.325 1088.54 342.431 1087.51V1087.48Z" fill="#6BC7F8"/>
<path d="M544.943 1077.78C544.943 1077.78 544.552 1077.44 544.468 1077.39C542.624 1075.77 542.484 1073.06 544.021 1071.17C545.558 1069.27 548.436 1068.99 550.42 1070.47C552.432 1071.98 552.851 1074.85 551.342 1076.86C550.448 1078.06 549.079 1078.7 547.682 1078.7C546.731 1078.7 545.753 1078.39 544.943 1077.78Z" fill="#6BC7F8"/>
<path d="M629.726 1137.18C629.726 1137.18 629.335 1136.85 629.251 1136.79C627.407 1135.17 627.267 1132.47 628.804 1130.57C630.341 1128.67 633.219 1128.4 635.203 1129.87C637.215 1131.38 637.634 1134.25 636.125 1136.26C635.231 1137.46 633.862 1138.1 632.465 1138.1C631.515 1138.1 630.537 1137.79 629.726 1137.18Z" fill="#6BC7F8"/>
<path d="M470.584 1003.34C470.584 1003.34 470.305 1002.9 470.249 1002.79C469.047 1000.64 469.858 998.072 471.926 996.789C474.022 995.534 476.816 996.232 478.185 998.267C479.582 1000.36 479.024 1003.2 476.928 1004.6C476.145 1005.13 475.279 1005.35 474.385 1005.35C472.904 1005.35 471.451 1004.63 470.584 1003.32V1003.34Z" fill="#6BC7F8"/>
</svg>
