<svg width="61" height="70" viewBox="0 0 61 70" fill="none" xmlns="http://www.w3.org/2000/svg">
<path d="M44.2239 33.4674C45.1492 32.5302 46.6494 32.5302 47.5747 33.4674C48.5 34.4045 48.5 35.9238 47.5747 36.8609C46.6494 37.7981 45.1492 37.7981 44.2239 36.8609C43.2986 35.9238 43.2986 34.4045 44.2239 33.4674Z" fill="#179EFF"/>
<path d="M51.4722 29.5272C52.2153 28.8954 53.3229 29.0019 53.9398 29.7544C54.5637 30.5069 54.4655 31.6216 53.7225 32.2534C52.9794 32.8782 51.8718 32.7788 51.2549 32.0262C50.631 31.2737 50.7362 30.1591 51.4792 29.5272" fill="#179EFF"/>
<path d="M51.255 38.3021C51.8788 37.5496 52.9794 37.4502 53.7225 38.0749C54.4655 38.7068 54.5637 39.8214 53.9468 40.574C53.3229 41.3265 52.2223 41.4259 51.4793 40.794C50.7362 40.1622 50.6381 39.0476 51.262 38.295" fill="#179EFF"/>
<path d="M58.314 25.8638C58.8607 25.4449 59.6319 25.5514 60.0525 26.0981C60.466 26.6519 60.3609 27.4399 59.8211 27.8588C59.2743 28.2776 58.4962 28.1712 58.0826 27.6245C57.669 27.0707 57.7742 26.2827 58.314 25.8638Z" fill="#179EFF"/>
<path d="M58.2019 34.2838C58.6786 33.8011 59.4567 33.8011 59.9404 34.2838C60.417 34.7666 60.417 35.5546 59.9404 36.0445C59.4637 36.5273 58.6856 36.5273 58.2019 36.0445C57.7252 35.5546 57.7252 34.7737 58.2019 34.2838Z" fill="#179EFF"/>
<path d="M58.0827 42.7039C58.4963 42.1501 59.2744 42.0507 59.8212 42.4696C60.368 42.8885 60.4661 43.6765 60.0525 44.2303C59.639 44.784 58.8608 44.8834 58.3141 44.4645C57.7673 44.0457 57.6621 43.2576 58.0827 42.7039Z" fill="#179EFF"/>
<path d="M43.7752 42.8316C44.4552 41.646 45.9553 41.2342 47.126 41.9229C48.2967 42.6115 48.7033 44.1308 48.0233 45.3164C47.3433 46.502 45.8432 46.9138 44.6725 46.2252C43.5018 45.5365 43.0952 44.0172 43.7752 42.8316Z" fill="#179EFF"/>
<path d="M51.0376 47.07C51.5353 46.1968 52.6429 45.8986 53.5051 46.4027C54.3674 46.9068 54.6688 48.0285 54.1641 48.9017C53.6594 49.775 52.5588 50.0731 51.6965 49.5691C50.8343 49.065 50.5329 47.9433 51.0376 47.07Z" fill="#179EFF"/>
<path d="M35.8609 38.2027C36.8002 36.5557 38.8752 35.9948 40.5015 36.9461C42.1279 37.8975 42.6817 39.9989 41.7423 41.646C40.803 43.2931 38.728 43.8539 37.1087 42.9026C35.4823 41.9513 34.9286 39.8498 35.8679 38.2027" fill="#179EFF"/>
<path d="M57.9705 51.1309C58.321 50.5132 59.0991 50.3002 59.709 50.6623C60.3189 51.0173 60.5222 51.8053 60.1717 52.423C59.8212 53.0406 59.043 53.2536 58.4332 52.8915C57.8233 52.5366 57.613 51.7485 57.9705 51.1309Z" fill="#179EFF"/>
<path d="M38.8962 46.2039C40.158 46.5447 40.908 47.8652 40.5716 49.1431C40.2351 50.421 38.9312 51.1806 37.6694 50.8399C36.4076 50.4991 35.6575 49.1786 35.994 47.9007C36.3305 46.6228 37.6344 45.8631 38.8962 46.2039Z" fill="#4589FF"/>
<path d="M30.6735 50.4919C32.0264 50.4919 33.127 51.6066 33.127 52.9768C33.127 54.347 32.0264 55.4616 30.6735 55.4616C29.3205 55.4616 28.22 54.347 28.22 52.9768C28.22 51.6066 29.3205 50.4919 30.6735 50.4919Z" fill="#4589FF"/>
<path d="M45.8922 50.5984C46.8035 50.9392 47.2662 51.9544 46.9367 52.8774C46.6072 53.8003 45.5978 54.2689 44.6865 53.9352C43.7752 53.6015 43.3125 52.5792 43.642 51.6562C43.9715 50.7333 44.9809 50.2647 45.8922 50.5984Z" fill="#4589FF"/>
<path d="M38.2794 54.7872C39.2327 54.9575 39.8707 55.8734 39.7024 56.8389C39.5342 57.8044 38.6299 58.4505 37.6765 58.2801C36.7232 58.1097 36.0852 57.1939 36.2535 56.2283C36.4217 55.2628 37.326 54.6168 38.2794 54.7872Z" fill="#4589FF"/>
<path d="M30.6735 58.9829C31.6689 58.9829 32.482 59.7994 32.482 60.8146C32.482 61.8298 31.6759 62.6463 30.6735 62.6463C29.671 62.6463 28.8649 61.8298 28.8649 60.8146C28.8649 59.7994 29.671 58.9829 30.6735 58.9829Z" fill="#4589FF"/>
<path d="M30.6735 41.2343C32.5452 41.2343 34.0664 42.7748 34.0664 44.6704C34.0664 46.566 32.5452 48.1066 30.6735 48.1066C28.8018 48.1066 27.2806 46.566 27.2806 44.6704C27.2806 42.7748 28.8018 41.2343 30.6735 41.2343Z" fill="#4589FF"/>
<path d="M52.4466 54.7659C53.0775 55.0357 53.3789 55.7669 53.1125 56.4059C52.8462 57.0448 52.1241 57.3501 51.4932 57.0803C50.8623 56.8106 50.5609 56.0793 50.8273 55.4404C51.0937 54.8014 51.8157 54.4961 52.4466 54.7659Z" fill="#4589FF"/>
<path d="M45.1842 58.8693C45.8361 59.0468 46.2287 59.7284 46.0534 60.3957C45.8782 61.056 45.2052 61.4536 44.5463 61.2761C43.8873 61.0986 43.5018 60.417 43.677 59.7497C43.8523 59.0894 44.5252 58.6919 45.1842 58.8693Z" fill="#4589FF"/>
<path d="M37.9289 62.98C38.6088 63.0652 39.0855 63.697 39.0014 64.3857C38.9173 65.0743 38.2934 65.5571 37.6134 65.4719C36.9334 65.3867 36.4567 64.7548 36.5409 64.0662C36.625 63.3775 37.2489 62.8948 37.9289 62.98Z" fill="#4589FF"/>
<path d="M30.6735 67.0906C31.3745 67.0906 31.9423 67.6656 31.9423 68.3756C31.9423 69.0855 31.3745 69.6606 30.6735 69.6606C29.9725 69.6606 29.4047 69.0855 29.4047 68.3756C29.4047 67.6656 29.9725 67.0906 30.6735 67.0906Z" fill="#4589FF"/>
<path d="M10.5126 55.4404C10.779 56.0793 10.4775 56.8177 9.84662 57.0803C9.21572 57.3501 8.48668 57.0448 8.2273 56.4059C7.96092 55.7669 8.26235 55.0286 8.89326 54.7659C9.52416 54.4961 10.2532 54.8014 10.5126 55.4404Z" fill="#3FCCFC"/>
<path d="M35.994 22.4276C35.6575 21.1497 36.4076 19.8292 37.6694 19.4884C38.9312 19.1477 40.2351 19.9073 40.5716 21.1852C40.908 22.4631 40.158 23.7836 38.8962 24.1244C37.6344 24.4652 36.3305 23.7055 35.994 22.4276Z" fill="#00FF30"/>
<path d="M43.7752 27.5038C43.0952 26.3182 43.5018 24.7989 44.6725 24.1102C45.8432 23.4216 47.3433 23.8334 48.0233 25.019C48.7033 26.2046 48.2967 27.731 47.126 28.4125C45.9553 29.1012 44.4482 28.6894 43.7752 27.5038Z" fill="#00FF30"/>
<path d="M36.2535 14.0999C36.0852 13.1344 36.7232 12.2114 37.6765 12.0481C38.6299 11.8777 39.5412 12.5238 39.7024 13.4893C39.8707 14.4549 39.2327 15.3707 38.2794 15.5411C37.326 15.7115 36.4147 15.0654 36.2535 14.0999Z" fill="#00FF30"/>
<path d="M43.642 18.6792C43.3055 17.7562 43.7752 16.741 44.6865 16.4002C45.5978 16.0594 46.6002 16.5351 46.9367 17.458C47.2662 18.381 46.8035 19.3962 45.8922 19.737C44.9809 20.0778 43.9785 19.6021 43.642 18.6792Z" fill="#00FF30"/>
<path d="M51.0375 23.2583C50.5398 22.385 50.8342 21.2633 51.6965 20.7593C52.5587 20.2552 53.6663 20.5534 54.164 21.4266C54.6617 22.2998 54.3673 23.4216 53.5051 23.9256C52.6428 24.4297 51.5353 24.1315 51.0375 23.2583Z" fill="#00FF30"/>
<path d="M35.8609 32.1327C34.9215 30.4856 35.4823 28.3842 37.1017 27.4329C38.728 26.4815 40.803 27.0495 41.7353 28.6895C42.6746 30.3366 42.1138 32.438 40.4945 33.3893C38.8682 34.3407 36.7932 33.7727 35.8539 32.1327" fill="#00FF30"/>
<path d="M36.5409 6.2692C36.4567 5.58055 36.9334 4.9487 37.6134 4.8635C38.2934 4.77831 38.9173 5.26107 39.0014 5.94973C39.0855 6.63838 38.6088 7.26313 37.9289 7.35543C37.2489 7.44772 36.625 6.95785 36.5409 6.2692Z" fill="#00FF30"/>
<path d="M43.6841 10.5786C43.5088 9.91832 43.8944 9.23677 44.5533 9.05218C45.2053 8.87469 45.8782 9.26517 46.0605 9.93252C46.2357 10.5928 45.8432 11.2743 45.1912 11.4589C44.5393 11.6364 43.8593 11.2459 43.6841 10.5786Z" fill="#00FF30"/>
<path d="M50.8273 14.8951C50.5609 14.2562 50.8623 13.5178 51.4932 13.2552C52.1241 12.9854 52.8532 13.2907 53.1125 13.9296C53.3719 14.5686 53.0775 15.3069 52.4466 15.5696C51.8157 15.8394 51.0867 15.5341 50.8273 14.8951Z" fill="#00FF30"/>
<path d="M57.9705 19.2045C57.62 18.5869 57.8303 17.7988 58.4332 17.4438C59.043 17.0889 59.8211 17.3019 60.1716 17.9124C60.5221 18.5301 60.3118 19.3181 59.709 19.6731C59.0991 20.0281 58.321 19.8151 57.9705 19.2045Z" fill="#00FF30"/>
<path d="M30.6734 39.0688C28.5423 39.0688 26.8179 37.3224 26.8179 35.1641C26.8179 33.0059 28.5423 31.2594 30.6734 31.2594C32.8044 31.2594 34.5289 33.0059 34.5289 35.1641C34.5289 37.3224 32.8044 39.0688 30.6734 39.0688Z" fill="#00FF30"/>
<path d="M30.6735 19.8434C29.3205 19.8434 28.22 18.7288 28.22 17.3586C28.22 15.9884 29.3205 14.8738 30.6735 14.8738C32.0264 14.8738 33.127 15.9884 33.127 17.3586C33.127 18.7288 32.0264 19.8434 30.6735 19.8434Z" fill="#00FF30"/>
<path d="M30.6735 11.3524C29.678 11.3524 28.8649 10.536 28.8649 9.52076C28.8649 8.50553 29.671 7.68909 30.6735 7.68909C31.6759 7.68909 32.482 8.50553 32.482 9.52076C32.482 10.536 31.6759 11.3524 30.6735 11.3524Z" fill="#00FF30"/>
<path d="M30.6735 29.0941C28.7948 29.0941 27.2806 27.5535 27.2806 25.658C27.2806 23.7624 28.8018 22.2218 30.6735 22.2218C32.5452 22.2218 34.0664 23.7624 34.0664 25.658C34.0664 27.5535 32.5452 29.0941 30.6735 29.0941Z" fill="#00FF30"/>
<path d="M30.6735 3.24482C29.9725 3.24482 29.4047 2.66976 29.4047 1.95981C29.4047 1.24986 29.9725 0.674805 30.6735 0.674805C31.3745 0.674805 31.9423 1.24986 31.9423 1.95981C31.9423 2.66976 31.3745 3.24482 30.6735 3.24482Z" fill="#00FF30"/>
<path d="M25.3458 47.9007C25.6823 49.1786 24.9323 50.4991 23.6704 50.8399C22.4086 51.1806 21.1048 50.421 20.7683 49.1431C20.4318 47.8652 21.1819 46.5447 22.4437 46.2039C23.7055 45.8631 25.0094 46.6228 25.3458 47.9007Z" fill="#3FCCFC"/>
<path d="M25.0865 56.2283C25.2547 57.1939 24.6168 58.1097 23.6634 58.2801C22.7101 58.4505 21.7987 57.8044 21.6375 56.8389C21.4693 55.8734 22.1072 54.9575 23.0606 54.7872C24.0139 54.6168 24.9252 55.2628 25.0865 56.2283Z" fill="#3FCCFC"/>
<path d="M17.6978 51.6492C18.0273 52.5721 17.5646 53.5874 16.6533 53.9281C15.742 54.2689 14.7396 53.7932 14.4031 52.8703C14.0736 51.9474 14.5363 50.9322 15.4476 50.5914C16.3589 50.2506 17.3613 50.7263 17.6978 51.6492Z" fill="#3FCCFC"/>
<path d="M24.799 64.0662C24.8831 64.7548 24.4064 65.3867 23.7265 65.4718C23.0465 65.557 22.4226 65.0743 22.3385 64.3856C22.2544 63.697 22.731 63.0722 23.411 62.9799C24.091 62.8876 24.7149 63.3775 24.799 64.0662Z" fill="#3FCCFC"/>
<path d="M17.6559 59.7497C17.8311 60.4099 17.4456 61.0915 16.7866 61.276C16.1347 61.4535 15.4547 61.0631 15.2794 60.3957C15.1042 59.7355 15.4968 59.0468 16.1487 58.8693C16.8076 58.6918 17.4806 59.0823 17.6559 59.7497Z" fill="#3FCCFC"/>
<path d="M17.5647 42.8316C18.2447 44.0172 17.8381 45.5365 16.6674 46.2252C15.4967 46.9138 13.9966 46.502 13.3166 45.3164C12.6366 44.1308 13.0432 42.6044 14.2139 41.9229C15.3846 41.2342 16.8847 41.646 17.5647 42.8316Z" fill="#00FFA3"/>
<path d="M10.3093 47.07C10.807 47.9433 10.5126 49.065 9.65034 49.5691C8.7881 50.0731 7.68052 49.775 7.1828 48.9017C6.68509 48.0285 6.97951 46.9068 7.84175 46.4027C8.70398 45.8986 9.81157 46.1968 10.3093 47.07Z" fill="#00FFA3"/>
<path d="M25.4789 38.2028C26.4183 39.8499 25.8575 41.9513 24.2382 42.9026C22.6118 43.854 20.5369 43.286 19.6045 41.646C18.6652 39.9989 19.226 37.8975 20.8453 36.9462C22.4716 35.9948 24.5466 36.5628 25.486 38.2028" fill="#00FFA3"/>
<path d="M3.3694 51.1309C3.7199 51.7486 3.5096 52.5366 2.90673 52.8916C2.29686 53.2466 1.51875 53.0336 1.16824 52.423C0.817742 51.8054 1.02804 51.0173 1.63091 50.6624C2.24078 50.3074 3.01889 50.5204 3.3694 51.1309Z" fill="#00FFA3"/>
<path d="M3.13799 36.0445C2.66131 36.5273 1.8832 36.5273 1.3995 36.0445C0.922822 35.5617 0.922822 34.7737 1.3995 34.2838C1.87619 33.8011 2.6543 33.8011 3.13799 34.2838C3.61468 34.7666 3.61468 35.5546 3.13799 36.0445Z" fill="#00FFA3"/>
<path d="M17.1161 36.8609C16.1908 37.7981 14.6906 37.7981 13.7653 36.8609C12.84 35.9238 12.84 34.4045 13.7653 33.4674C14.6906 32.5302 16.1908 32.5302 17.1161 33.4674C18.0414 34.4045 18.0414 35.9238 17.1161 36.8609Z" fill="#00FFA3"/>
<path d="M9.86768 40.8011C9.12461 41.433 8.01703 41.3265 7.40014 40.574C6.77625 39.8214 6.87439 38.7068 7.61745 38.0749C8.36052 37.4431 9.4681 37.5425 10.085 38.295C10.7089 39.0476 10.6037 40.1693 9.86768 40.794" fill="#00FFA3"/>
<path d="M10.085 32.0333C9.46109 32.7858 8.36052 32.8852 7.61745 32.2605C6.87439 31.6286 6.77625 30.514 7.40014 29.7615C8.02404 29.0089 9.12461 28.9095 9.86768 29.5414C10.6107 30.1661 10.7089 31.2878 10.085 32.0404" fill="#00FFA3"/>
<path d="M3.02584 44.4645C2.47905 44.8834 1.70795 44.7769 1.28735 44.2302C0.873754 43.6764 0.978905 42.8955 1.51868 42.4695C2.06546 42.0507 2.83656 42.1572 3.25717 42.7038C3.67076 43.2576 3.56561 44.0385 3.02584 44.4645Z" fill="#00FFA3"/>
<path d="M3.2572 27.6244C2.84361 28.1782 2.06549 28.2776 1.51871 27.8587C0.971929 27.4398 0.873789 26.6518 1.28738 26.098C1.70097 25.5443 2.47909 25.4449 3.02587 25.8638C3.57265 26.2826 3.67079 27.0707 3.2572 27.6244Z" fill="#00FFA3"/>
<path d="M22.4437 24.1244C21.1819 23.7836 20.4318 22.4631 20.7683 21.1852C21.1048 19.9073 22.4086 19.1477 23.6704 19.4884C24.9323 19.8292 25.6823 21.1497 25.3458 22.4276C25.0094 23.7055 23.7055 24.4652 22.4437 24.1244Z" fill="#7DFF00"/>
<path d="M15.4476 19.7369C14.5363 19.3962 14.0736 18.3809 14.4031 17.458C14.7326 16.5351 15.742 16.0665 16.6533 16.4002C17.5646 16.741 18.0273 17.7562 17.6978 18.6791C17.3613 19.602 16.3589 20.0706 15.4476 19.7369Z" fill="#7DFF00"/>
<path d="M23.0606 15.5411C22.1072 15.3707 21.4693 14.4549 21.6375 13.4893C21.8058 12.5238 22.7101 11.8777 23.6634 12.0481C24.6168 12.2185 25.2547 13.1344 25.0865 14.0999C24.9182 15.0654 24.0139 15.7115 23.0606 15.5411Z" fill="#7DFF00"/>
<path d="M8.89326 15.5696C8.26235 15.2998 7.96092 14.5686 8.2273 13.9296C8.49369 13.2907 9.21572 12.9854 9.84662 13.2552C10.4775 13.5249 10.779 14.2562 10.5126 14.8951C10.2462 15.5341 9.52416 15.8394 8.89326 15.5696Z" fill="#7DFF00"/>
<path d="M16.1556 11.4589C15.4967 11.2814 15.1111 10.5999 15.2864 9.93254C15.4616 9.27228 16.1346 8.87471 16.7935 9.0522C17.4525 9.22969 17.838 9.91124 17.6628 10.5786C17.4875 11.2388 16.8146 11.6364 16.1556 11.4589Z" fill="#7DFF00"/>
<path d="M23.411 7.34835C22.731 7.26315 22.2544 6.6313 22.3385 5.94265C22.4226 5.25399 23.0465 4.77123 23.7265 4.85642C24.4064 4.94162 24.8831 5.57347 24.799 6.26212C24.7149 6.95077 24.091 7.43354 23.411 7.34835Z" fill="#7DFF00"/>
<path d="M17.5647 27.5038C16.8847 28.6894 15.3846 29.1012 14.2139 28.4125C13.0432 27.7239 12.6366 26.2046 13.3166 25.019C13.9966 23.8334 15.4967 23.4216 16.6674 24.1102C17.8381 24.7989 18.2447 26.3182 17.5647 27.5038Z" fill="#7DFF00"/>
<path d="M10.3092 23.2583C9.81151 24.1315 8.70392 24.4297 7.84169 23.9256C6.97945 23.4216 6.67802 22.2998 7.18274 21.4266C7.68046 20.5534 8.78804 20.2552 9.65028 20.7593C10.5125 21.2633 10.8139 22.385 10.3092 23.2583Z" fill="#7DFF00"/>
<path d="M25.4791 32.1327C24.5397 33.7798 22.4647 34.3406 20.8384 33.3893C19.2121 32.438 18.6583 30.3365 19.5976 28.6894C20.537 27.0423 22.612 26.4815 24.2313 27.4328C25.8576 28.3842 26.4114 30.4856 25.4721 32.1327" fill="#7DFF00"/>
<path d="M3.36934 19.2045C3.01884 19.8221 2.24073 20.0351 1.63085 19.673C1.02098 19.3181 0.817689 18.53 1.16819 17.9124C1.51869 17.2947 2.29681 17.0817 2.90668 17.4438C3.51655 17.7988 3.72685 18.5868 3.36934 19.2045Z" fill="#7DFF00"/>
</svg>
