<svg width="235" height="51" viewBox="0 0 235 51" fill="none" xmlns="http://www.w3.org/2000/svg">
<path d="M86.388 20C87.012 20 87.324 20.228 87.324 20.684V21.296C87.324 21.752 87.012 21.98 86.388 21.98H85.272L80.628 37.388C80.508 37.796 80.196 38 79.692 38H79.26C78.804 38 78.492 37.796 78.324 37.388L74.148 26.192L69.972 37.388C69.804 37.796 69.492 38 69.036 38H68.604C68.1 38 67.788 37.796 67.668 37.388L63.024 21.98H61.908C61.284 21.98 60.972 21.752 60.972 21.296V20.684C60.972 20.228 61.284 20 61.908 20H66.264C66.888 20 67.2 20.228 67.2 20.684V21.296C67.2 21.752 66.888 21.98 66.264 21.98H65.148L68.892 34.4L72.924 23.6C73.02 23.36 73.14 23.18 73.284 23.06C73.428 22.94 73.632 22.88 73.896 22.88H74.4C74.664 22.88 74.868 22.94 75.012 23.06C75.156 23.18 75.276 23.36 75.372 23.6L79.404 34.4L83.148 21.98H82.032C81.408 21.98 81.096 21.752 81.096 21.296V20.684C81.096 20.228 81.408 20 82.032 20H86.388ZM105.437 36.02C106.061 36.02 106.373 36.248 106.373 36.704V37.316C106.373 37.772 106.061 38 105.437 38H103.277C102.965 38 102.701 37.892 102.485 37.676C102.293 37.46 102.197 37.196 102.197 36.884V34.292C101.741 35.444 100.913 36.416 99.7128 37.208C98.5128 37.976 97.2528 38.36 95.9328 38.36C94.2288 38.36 92.8488 37.88 91.7928 36.92C90.7608 35.936 90.2448 34.652 90.2448 33.068C90.2448 31.46 90.7968 30.2 91.9008 29.288C93.0288 28.352 94.5768 27.884 96.5448 27.884C98.3448 27.884 100.229 28.1 102.197 28.532V26.768C102.197 24.992 101.789 23.696 100.973 22.88C100.181 22.04 98.9208 21.62 97.1928 21.62C96.3528 21.62 95.6328 21.728 95.0328 21.944C94.4328 22.136 94.0008 22.412 93.7368 22.772C94.1688 23.084 94.3848 23.516 94.3848 24.068C94.3848 24.5 94.2408 24.872 93.9528 25.184C93.6648 25.472 93.3048 25.616 92.8728 25.616C92.3208 25.616 91.8888 25.436 91.5768 25.076C91.2888 24.716 91.1448 24.212 91.1448 23.564C91.1448 22.436 91.7328 21.5 92.9088 20.756C94.0848 20.012 95.5848 19.64 97.4088 19.64C99.6168 19.64 101.321 20.252 102.521 21.476C103.721 22.7 104.321 24.428 104.321 26.66V36.02H105.437ZM96.1848 36.38C97.2648 36.38 98.2608 36.104 99.1728 35.552C100.109 34.976 100.841 34.22 101.369 33.284C101.921 32.324 102.197 31.292 102.197 30.188V30.152C100.949 29.96 99.1608 29.864 96.8328 29.864C95.3448 29.864 94.2168 30.14 93.4488 30.692C92.6808 31.22 92.2968 32 92.2968 33.032C92.2968 34.088 92.6328 34.916 93.3048 35.516C94.0008 36.092 94.9608 36.38 96.1848 36.38ZM119.263 19.64C120.079 19.64 120.715 19.82 121.171 20.18C121.627 20.516 121.855 20.996 121.855 21.62C121.855 22.076 121.699 22.46 121.387 22.772C121.099 23.084 120.715 23.24 120.235 23.24C119.779 23.24 119.395 23.084 119.083 22.772C118.771 22.46 118.615 22.076 118.615 21.62H118.543C117.703 21.62 116.899 21.98 116.131 22.7C115.387 23.42 114.787 24.392 114.331 25.616C113.899 26.816 113.683 28.1 113.683 29.468V36.02H115.627C116.251 36.02 116.563 36.248 116.563 36.704V37.316C116.563 37.772 116.251 38 115.627 38H110.443C109.819 38 109.507 37.772 109.507 37.316V36.704C109.507 36.248 109.819 36.02 110.443 36.02H111.559V21.98H110.443C109.819 21.98 109.507 21.752 109.507 21.296V20.684C109.507 20.228 109.819 20 110.443 20H112.567C112.879 20 113.143 20.108 113.359 20.324C113.575 20.54 113.683 20.804 113.683 21.116V24.644C114.115 23.108 114.823 21.896 115.807 21.008C116.815 20.096 117.967 19.64 119.263 19.64ZM134.666 19.64C136.13 19.64 137.414 20.024 138.518 20.792C139.622 21.536 140.474 22.616 141.074 24.032C141.674 25.424 141.974 27.044 141.974 28.892C141.974 30.812 141.65 32.492 141.002 33.932C140.378 35.348 139.478 36.44 138.302 37.208C137.126 37.976 135.746 38.36 134.162 38.36C133.082 38.36 132.038 38.084 131.03 37.532C130.046 36.98 129.242 36.236 128.618 35.3V44.3H129.734C130.358 44.3 130.67 44.528 130.67 44.984V45.596C130.67 46.052 130.358 46.28 129.734 46.28H125.378C124.754 46.28 124.442 46.052 124.442 45.596V44.984C124.442 44.528 124.754 44.3 125.378 44.3H126.494V21.98H125.378C124.754 21.98 124.442 21.752 124.442 21.296V20.684C124.442 20.228 124.754 20 125.378 20H127.574C127.886 20 128.138 20.108 128.33 20.324C128.522 20.54 128.618 20.804 128.618 21.116V23.672C129.074 22.52 129.866 21.56 130.994 20.792C132.146 20.024 133.37 19.64 134.666 19.64ZM134.126 36.38C135.974 36.38 137.378 35.72 138.338 34.4C139.322 33.056 139.814 31.112 139.814 28.568C139.814 26.36 139.334 24.656 138.374 23.456C137.438 22.232 136.118 21.62 134.414 21.62C133.358 21.62 132.386 21.896 131.498 22.448C130.61 23 129.902 23.756 129.374 24.716C128.87 25.652 128.618 26.684 128.618 27.812V33.176C129.386 34.232 130.238 35.036 131.174 35.588C132.11 36.116 133.094 36.38 134.126 36.38ZM154.497 11C155.745 11 156.813 11.324 157.701 11.972C158.589 12.62 159.033 13.4 159.033 14.312C159.033 14.96 158.877 15.464 158.565 15.824C158.277 16.184 157.857 16.364 157.305 16.364C156.873 16.364 156.513 16.22 156.225 15.932C155.937 15.62 155.793 15.248 155.793 14.816C155.793 14.336 155.973 13.916 156.333 13.556C155.949 13.172 155.301 12.98 154.389 12.98C152.229 12.98 151.149 14.3 151.149 16.94V20H156.045C156.453 20 156.741 20.084 156.909 20.252C157.077 20.396 157.161 20.624 157.161 20.936V21.008C157.161 21.656 156.789 21.98 156.045 21.98H151.149V36.02H153.093C153.717 36.02 154.029 36.248 154.029 36.704V37.316C154.029 37.772 153.717 38 153.093 38H147.909C147.285 38 146.973 37.772 146.973 37.316V36.704C146.973 36.248 147.285 36.02 147.909 36.02H149.025V21.98H146.325C145.581 21.98 145.209 21.656 145.209 21.008V20.936C145.209 20.624 145.293 20.396 145.461 20.252C145.629 20.084 145.917 20 146.325 20H149.025V16.436C149.025 14.804 149.517 13.496 150.501 12.512C151.509 11.504 152.841 11 154.497 11ZM167.822 38.36C166.19 38.36 164.738 37.976 163.466 37.208C162.194 36.416 161.21 35.324 160.514 33.932C159.818 32.54 159.47 30.944 159.47 29.144C159.47 27.296 159.818 25.652 160.514 24.212C161.234 22.772 162.218 21.656 163.466 20.864C164.738 20.048 166.19 19.64 167.822 19.64C169.454 19.64 170.906 20.036 172.178 20.828C173.45 21.596 174.434 22.676 175.13 24.068C175.826 25.46 176.174 27.056 176.174 28.856C176.174 30.704 175.814 32.348 175.094 33.788C174.398 35.228 173.414 36.356 172.142 37.172C170.894 37.964 169.454 38.36 167.822 38.36ZM167.822 36.38C169.742 36.38 171.254 35.708 172.358 34.364C173.462 33.02 174.014 31.184 174.014 28.856C174.014 26.576 173.474 24.8 172.394 23.528C171.314 22.256 169.79 21.62 167.822 21.62C165.902 21.62 164.39 22.292 163.286 23.636C162.182 24.98 161.63 26.816 161.63 29.144C161.63 31.424 162.17 33.2 163.25 34.472C164.33 35.744 165.854 36.38 167.822 36.38ZM189.786 19.64C190.602 19.64 191.238 19.82 191.694 20.18C192.15 20.516 192.378 20.996 192.378 21.62C192.378 22.076 192.222 22.46 191.91 22.772C191.622 23.084 191.238 23.24 190.758 23.24C190.302 23.24 189.918 23.084 189.606 22.772C189.294 22.46 189.138 22.076 189.138 21.62H189.066C188.226 21.62 187.422 21.98 186.654 22.7C185.91 23.42 185.31 24.392 184.854 25.616C184.422 26.816 184.206 28.1 184.206 29.468V36.02H186.15C186.774 36.02 187.086 36.248 187.086 36.704V37.316C187.086 37.772 186.774 38 186.15 38H180.966C180.342 38 180.03 37.772 180.03 37.316V36.704C180.03 36.248 180.342 36.02 180.966 36.02H182.082V21.98H180.966C180.342 21.98 180.03 21.752 180.03 21.296V20.684C180.03 20.228 180.342 20 180.966 20H183.09C183.402 20 183.666 20.108 183.882 20.324C184.098 20.54 184.206 20.804 184.206 21.116V24.644C184.638 23.108 185.346 21.896 186.33 21.008C187.338 20.096 188.49 19.64 189.786 19.64ZM211.682 20C212.306 20 212.618 20.228 212.618 20.684V21.296C212.618 21.752 212.306 21.98 211.682 21.98H210.566V37.28C210.566 43.52 207.95 46.64 202.718 46.64C201.566 46.64 200.486 46.448 199.478 46.064C198.494 45.68 197.702 45.152 197.102 44.48C196.526 43.832 196.238 43.124 196.238 42.356C196.238 41.708 196.382 41.204 196.67 40.844C196.982 40.484 197.414 40.304 197.966 40.304C198.398 40.304 198.758 40.448 199.046 40.736C199.334 41.048 199.478 41.42 199.478 41.852C199.478 42.428 199.262 42.872 198.83 43.184C199.118 43.616 199.598 43.964 200.27 44.228C200.942 44.516 201.686 44.66 202.502 44.66C204.638 44.66 206.162 44.084 207.074 42.932C207.986 41.804 208.442 39.92 208.442 37.28V34.328C207.986 35.48 207.182 36.44 206.03 37.208C204.902 37.976 203.69 38.36 202.394 38.36C200.93 38.36 199.646 37.988 198.542 37.244C197.438 36.476 196.586 35.396 195.986 34.004C195.386 32.588 195.086 30.956 195.086 29.108C195.086 27.188 195.398 25.52 196.022 24.104C196.67 22.664 197.582 21.56 198.758 20.792C199.934 20.024 201.314 19.64 202.898 19.64C203.978 19.64 205.01 19.916 205.994 20.468C207.002 21.02 207.818 21.764 208.442 22.7V21.116C208.442 20.372 208.79 20 209.486 20H211.682ZM202.646 36.38C203.702 36.38 204.674 36.104 205.562 35.552C206.45 35 207.146 34.256 207.65 33.32C208.178 32.36 208.442 31.316 208.442 30.188V24.824C207.674 23.768 206.822 22.976 205.886 22.448C204.95 21.896 203.966 21.62 202.934 21.62C201.086 21.62 199.67 22.292 198.686 23.636C197.726 24.956 197.246 26.888 197.246 29.432C197.246 31.64 197.714 33.356 198.65 34.58C199.61 35.78 200.942 36.38 202.646 36.38ZM232.017 28.1C232.017 28.388 231.993 28.844 231.945 29.468H218.373C218.493 31.628 219.081 33.32 220.137 34.544C221.193 35.768 222.609 36.38 224.385 36.38C225.633 36.38 226.617 36.176 227.337 35.768C228.081 35.36 228.741 34.628 229.317 33.572C229.485 33.26 229.641 33.044 229.785 32.924C229.929 32.804 230.097 32.744 230.289 32.744C230.553 32.744 230.793 32.84 231.009 33.032C231.225 33.2 231.333 33.404 231.333 33.644C231.333 33.956 231.189 34.352 230.901 34.832C230.157 36.08 229.269 36.98 228.237 37.532C227.229 38.084 225.945 38.36 224.385 38.36C222.777 38.36 221.349 37.964 220.101 37.172C218.877 36.356 217.917 35.228 217.221 33.788C216.549 32.348 216.213 30.692 216.213 28.82C216.213 26.996 216.549 25.388 217.221 23.996C217.893 22.604 218.841 21.536 220.065 20.792C221.313 20.024 222.753 19.64 224.385 19.64C226.761 19.64 228.621 20.396 229.965 21.908C231.333 23.396 232.017 25.46 232.017 28.1ZM224.385 21.62C222.681 21.62 221.313 22.136 220.281 23.168C219.249 24.176 218.637 25.616 218.445 27.488H229.857C229.785 25.52 229.293 24.056 228.381 23.096C227.493 22.112 226.161 21.62 224.385 21.62Z" fill="#674EA7"/>
<g clip-path="url(#clip0_260_7)">
<path d="M50.3044 26.4417C50.3166 26.1237 50.3166 25.818 50.3166 25.5C50.3166 25.2799 50.3166 25.0719 50.3044 24.8518C50.2556 22.895 49.975 20.9993 49.5113 19.1892C49.3771 18.6511 49.2185 18.1252 49.0355 17.5993H31.2831V14.1871H47.6324C47.3518 13.6489 47.0589 13.1108 46.7539 12.5971C45.7046 10.8604 44.4479 9.2705 43.0326 7.8518C42.6056 7.43597 42.1663 7.02014 41.7149 6.62878L40.1044 12.5971H36.5905L38.7989 4.4518C38.3352 4.15827 37.8716 3.87698 37.3836 3.62014C35.4924 2.58058 33.4549 1.79784 31.2953 1.28417C30.7707 1.16187 30.246 1.0518 29.7092 0.953957V24.8396H26.3173V8.48777C26.3173 8.27986 26.0245 8.24317 25.9757 8.43885L24.841 12.5971H21.3271L24.5848 0.611511C24.0235 0.635972 23.4623 0.672662 22.9132 0.733813C20.4975 0.990648 18.1915 1.58993 16.0319 2.48273C15.4951 2.70288 14.9704 2.94748 14.4458 3.20432V24.8396H11.0295V5.27122C10.4805 5.66259 9.95583 6.07842 9.44339 6.50648C7.40583 8.24317 5.64889 10.2978 4.25798 12.6094C3.94075 13.123 3.64793 13.6612 3.37951 14.1993H9.45559V17.5993H1.952C1.78119 18.1252 1.62257 18.6511 1.47616 19.1892C1.00032 21.0115 0.731903 22.9072 0.683099 24.8518C0.683099 25.0719 0.670898 25.2799 0.670898 25.5C0.670898 25.818 0.670898 26.136 0.683099 26.4417H15.8855L14.9582 29.8417H1.04913C1.14674 30.3799 1.25654 30.9058 1.37855 31.4317C2.63525 36.605 5.51468 41.1424 9.44339 44.4813C9.85822 44.836 10.2731 45.1662 10.7123 45.4842C10.8221 45.5576 10.9197 45.6432 11.0295 45.7165V31.4194H14.4214V36.5561C14.4214 36.764 14.7142 36.8007 14.763 36.605L19.5214 19.177H23.0353L15.1656 48.1137C15.4463 48.2482 15.7269 48.3705 16.0197 48.4806C16.2271 48.5662 16.4345 48.6518 16.6419 48.7252C19.1431 49.6914 21.8518 50.254 24.6702 50.3518L24.7312 50.1317V50.3518C24.9874 50.364 25.2558 50.364 25.512 50.364C25.7805 50.364 26.0489 50.364 26.3173 50.3518V31.4194H29.7092V36.5561C29.7092 36.764 30.002 36.8007 30.0508 36.605L34.797 19.177H38.3108L29.9288 49.9849C30.3802 49.8993 30.8439 49.8137 31.2831 49.7036C31.4173 49.6669 31.5393 49.6424 31.6735 49.6058C40.507 47.3432 47.4494 40.323 49.6211 31.4317C49.7431 30.9058 49.8652 30.3799 49.9506 29.8417H37.0419L37.9692 26.4417H50.3044V26.4417ZM16.0075 17.5871V14.1871H24.719V17.5871H16.0075ZM21.7786 29.8417L22.7058 26.4417H31.1733L30.246 29.8417H21.7786Z" fill="#674EA7"/>
<path d="M37.9692 26.4417H50.3044C50.3166 26.1237 50.3166 25.818 50.3166 25.5C50.3166 25.2799 50.3166 25.0719 50.3044 24.8518H38.3841L39.9214 19.1892H49.4991C49.3649 18.6511 49.2063 18.1252 49.0233 17.5993H31.2831V14.1871H47.6324C47.3518 13.6489 47.0589 13.1108 46.7539 12.5971H41.7271L43.0082 7.8518C42.5812 7.43597 42.1419 7.02014 41.6905 6.62878L40.08 12.5971H36.5661L38.7745 4.4518C38.3108 4.15827 37.8472 3.87698 37.3592 3.62014L34.9312 12.5971H31.2709V1.28417C30.7463 1.16187 30.2216 1.0518 29.6848 0.953957V24.8396H26.2929V8.48777C26.2929 8.27986 26.0001 8.24317 25.9513 8.43885L24.8166 12.5971H24.719H21.3027L24.5604 0.611511C23.9991 0.635972 23.4379 0.672662 22.8888 0.733813L19.6678 12.5971H16.0075V2.49496C15.4707 2.71511 14.946 2.95971 14.4214 3.21655V24.8518H11.0295V5.27122C10.4805 5.66259 9.95583 6.07842 9.44339 6.50648V12.6094H4.25798C3.94075 13.123 3.64793 13.6612 3.37951 14.1993H9.45559V17.5993H1.952C1.78119 18.1252 1.62257 18.6511 1.47616 19.1892H9.44339V24.8518H0.683099C0.683099 25.0719 0.670898 25.2799 0.670898 25.5C0.670898 25.818 0.670898 26.136 0.683099 26.4417H15.8855L14.9582 29.8417H1.04913C1.14674 30.3799 1.25654 30.9058 1.37855 31.4317H9.44339V44.4813C9.85822 44.836 10.2731 45.1662 10.7123 45.4842C10.8221 45.5576 10.9197 45.6432 11.0295 45.7165V31.4194H14.4214V36.5561C14.4214 36.764 14.7142 36.8007 14.763 36.605L19.5214 19.177H23.0353L15.1656 48.1137C15.4463 48.2482 15.7269 48.3705 16.0197 48.4806C16.2271 48.5662 16.4345 48.6518 16.6419 48.7252L21.3515 31.4072H24.7312V50.1439V50.364C24.9874 50.3763 25.2558 50.3763 25.512 50.3763C25.7805 50.3763 26.0489 50.3763 26.3173 50.364V50.3518V31.4194H29.7092V36.5561C29.7092 36.764 30.002 36.8007 30.0508 36.605L34.797 19.177H38.3108L29.9288 49.9849C30.3802 49.8993 30.8439 49.8137 31.2831 49.7036C31.4173 49.6669 31.5393 49.6424 31.6735 49.6058L36.6149 31.4317H49.6211C49.7431 30.9058 49.8652 30.3799 49.9506 29.8417H37.0419L37.9692 26.4417ZM24.719 19.177V24.8396H23.1329L24.6702 19.177H24.719ZM16.3369 24.8518H16.0197V19.1892H17.8864L16.3369 24.8518ZM16.0075 17.5871V14.1871H24.719V17.5871H16.0075ZM21.7786 29.8417L22.7058 26.4417H31.1733L30.246 29.8417H21.7786ZM31.6003 24.8518H31.2831V19.1892H33.1498L31.6003 24.8518Z" fill="#923FEC"/>
</g>
<defs>
<clipPath id="clip0_260_7">
<rect width="51" height="51" fill="white"/>
</clipPath>
</defs>
</svg>
